<svg width="32" height="32" xmlns="http://www.w3.org/2000/svg">
 <!-- Created with Method Draw - http://github.com/duopixel/Method-Draw/ -->
 <g>
  <title>background</title>
  <rect fill="none" id="canvas_background" height="34" width="34" y="-1" x="-1"/>
  <g display="none" overflow="visible" y="0" x="0" height="100%" width="100%" id="canvasGrid">
   <rect fill="url(#gridpattern)" stroke-width="0" y="0" x="0" height="100%" width="100%"/>
  </g>
 </g>
 <g>
  <title>Layer 1</title>
  <path id="svg_20" d="m27.187498,10.000002" opacity="0.5" fill-opacity="null" stroke-opacity="null" stroke-width="1.5" stroke="#000" fill="none"/>
  <path id="svg_22" d="m6.907817,26.649997l9.374996,-24.624989l9.374996,24.624989l-18.749993,0z" stroke-width="1.5" stroke="#634545" fill="#774949"/>
  <ellipse ry="4.374998" rx="1.749999" id="svg_25" cy="13.750001" cx="16.312502" stroke-width="0" stroke="#003f7f" fill="#90beed"/>
  <rect id="svg_26" height="2.624999" width="9.624997" y="27.999996" x="11.562503" stroke-width="0" stroke="#003f7f" fill="#ff0000"/>
  <rect id="svg_27" height="1.25" width="9.624997" y="27.374996" x="11.437504" stroke-width="0" stroke="#003f7f" fill="#ffff00"/>
  <path d="m10.937504,27.624996c0,0.125 0,0.125 0,0.375c0,0.125 0.05735,0.336679 0.125,0.5c0.095671,0.23097 0.125,0.375 0.125,0.625c0,0.125 0.077164,0.134516 0.125,0.25c0.06765,0.163319 0.125,0.124998 0.125,0.249998c0,0.125 -0.088388,0.161612 0,0.25c0.088388,0.088388 0.125,0 0.125,0.125c0,0 0,0.125 0,0.125c0.125,0.125 0.125,0.125 0.125,0.25c0,0 -0.088388,0.036612 0,0.125c0.088388,0.088388 0.125,0 0.125,0c0,0 0,0.125 0,0.125c0.125,0 0.125,0.125 0.125,0.125c0,0.125 -0.088388,0.161612 0,0.25c0.088387,0.088388 0.124999,0 0.124999,0.125c0,0 0,0 0,0c0,0 0.125,0 0.125,0c0.125,0 0.125,0 0.125,0c0,-0.25 0.125,-0.25 0.125,-0.25c0,-0.25 0.125,-0.375 0.125,-0.625c0,-0.125 0.021637,-0.356592 0.125,-0.5c0.163431,-0.226749 0.125,-0.374998 0.125,-0.499998c0,-0.25 0.036612,-0.161612 0.125,-0.25c0.088388,-0.088388 0,-0.125 0,-0.25c0,0 0,-0.125 0,-0.125c0.125,0 0.125,-0.125 0.125,-0.125c0,-0.125 0,-0.125 0,-0.125c0,-0.125 0,-0.125 0,-0.125c0,0 0,-0.125 0,-0.125c0.125,-0.125 0.125,-0.125 0.125,-0.25c0,0 0,-0.125 0,-0.125c0,-0.125 0.125,-0.25 0,-0.25c-0.125,0 0,0.125 0,0.25c0,0 0,0.125 0,0.125c0,0.125 0,0.125 0,0.25c0,0 0,0.125 0,0.25c0,0.125 0,0.125 0,0.25c0,0.125 0,0.25 0,0.375c0,0.125 -0.047836,0.259516 0,0.375c0.06765,0.163319 0.161612,0.16161 0.25,0.249998c0.088388,0.088388 0.125,0.125 0.125,0.125c0.125,0.125 0.125,0.125 0.125,0.25c0,0 0,0.125 0.125,0.125c0,0 0,0.125 0,0.125c0,0 0,0.125 0,0.125c0,0 0,0.125 0,0.125c0,0.125 0,0.125 0,0.25c0,0 0.036612,0.036612 0.125,0.125c0.088388,0.088388 0,0.125 0,0.125c0,0.125 0.036612,0.036612 0.125,0.125c0.088388,0.088388 -0.088388,0.161612 0,0.25c0.088388,0.088388 0.125,0 0.25,0c0,0 0,0 0.125,0c0,0 0,0 0,0c0.125,-0.125 0.18235,-0.211679 0.25,-0.375c0.095671,-0.23097 0,-0.375 0,-0.625c0,-0.125 0.124999,-0.25 0.124999,-0.375c0,0 0.125,-0.125 0.125,-0.25c0,-0.125 0,-0.125 0.125,-0.25c0,0 -0.088387,-0.036612 0,-0.124998c0.088388,-0.088388 0.125,-0.125 0.125,-0.125c0,-0.125 0,-0.125 0.125,-0.25c0,0 -0.088388,-0.036612 0,-0.125c0.088388,-0.088388 0.125,-0.125 0.125,-0.125c0,0 0.125,-0.125 0.125,-0.125c0.125,-0.125 0.125,-0.125 0.125,-0.25c0,0 0.125,0 0.125,-0.125c0,0 -0.088388,-0.036612 0,-0.125c0.088388,-0.088388 0.125,-0.125 0.125,-0.125c0,-0.125 0,-0.125 0,-0.125c0.125,-0.125 0.25,-0.25 0.125,-0.25c-0.125,0 0,0.125 0,0.25c0,0.125 0,0.25 0,0.375c0,0.125 0,0.25 0,0.375c0,0.125 0,0.25 0,0.5c0,0.125 0,0.25 0,0.25c0,0.124998 0,0.249998 0,0.249998c0,0.125 0,0.125 0,0.25c0,0 0.125,0 0.125,0.125c0,0 0,0.125 0,0.125c0.125,0 0.125,0.125 0.125,0.125c0,0.125 0.125,0.125 0.125,0.125c0,0.125 0.036612,0.036612 0.125,0.125c0.088388,0.088388 0,0.125 0,0.125c0,0.125 0,0.125 0,0.25c0,0 0.036612,0.036612 0.125,0.125c0.088388,0.088388 0,0.125 0,0.125c0.125,0 0.125,0.125 0.125,0.125c0.125,0 0.125,0 0.25,0c0,0 0.125,0 0.125,0c0,-0.125 0,-0.125 0,-0.25c0,0 0.036612,-0.036612 0.125,-0.125c0.088388,-0.088388 0,-0.25 0,-0.25c0,-0.125 0,-0.25 0,-0.5c0,0 0.125,-0.25 0.125,-0.375c0,-0.125 0.05735,-0.211679 0.125,-0.374998c0.047836,-0.115484 0,-0.25 0,-0.375c0,-0.125 0,-0.125 0,-0.25c0,-0.125 -0.088388,-0.161612 0,-0.25c0.088388,-0.088388 0.125,-0.125 0.125,-0.125c0,-0.125 0,-0.125 0,-0.125c0,-0.125 0,-0.125 0,-0.125c0.125,0 0.125,-0.125 0.125,-0.125c0,0 0.125,0 0.125,0c0,0 0,-0.125 0.125,-0.125c0,0 0,-0.125 0,-0.125c0.125,-0.125 0.125,0 0.125,0c0,0.125 0,0.125 0,0.125c0,0.125 0.05735,0.086679 0.125,0.25c0.047836,0.115484 0.036612,0.161612 0.125,0.25c0.088388,0.088388 0.125,0.125 0.125,0.125c0.125,0.125 0.125,0.125 0.249998,0.25c0,0 0.125,0.125 0.125,0.125c0.125,0 0.125,0.125 0.125,0.125c0,0 0.036612,0.036612 0.125,0.125c0.088388,0.088388 0,0.125 0,0.25c0,0 0,0.124998 0,0.124998c0,0 0,0.125 0.125,0.25c0,0 0,0.125 0,0.125c0,0.125 0,0.125 0,0.25c0,0 0,0.125 0,0.125c0,0.125 0,0.125 0,0.125c0,0.125 0,0.125 0,0.25c0,0 0,0.125 0,0.125c0,0.125 0,0.125 0,0.25c0,0 -0.088388,0.036612 0,0.125c0.088388,0.088388 0.125,0 0.125,0c0,0 0,0.125 0.125,0.125c0,0 0,0 0,0c0,-0.125 0.125,-0.125 0.125,-0.125c0,-0.25 0,-0.25 0,-0.375c0,-0.125 0.125,-0.125 0.125,-0.25c0,-0.125 -0.088388,-0.286612 0,-0.375c0.088388,-0.088388 0.125,-0.125 0.125,-0.25c0,-0.125 0,-0.25 0,-0.25c0,-0.125 0,-0.125 0.125,-0.249998c0,0 0,-0.125 0,-0.125c0,-0.125 0.125,-0.125 0.125,-0.125c0,-0.125 0,-0.125 0,-0.125c0.125,0 0.125,-0.125 0.125,-0.125c0,0 0.125,0 0.125,-0.125c0,0 0.125,0 0.125,-0.125c0,0 0,0 0,-0.125c0,0 0,-0.125 0,-0.125c0,-0.125 0.125,-0.125 0.125,-0.25c0,0 0,0 0,-0.125l0,0l0,0" id="svg_31" stroke="#ff7f00" fill="none"/>
 </g>
</svg>