<svg xmlns="http://www.w3.org/2000/svg" xmlns:xlink="http://www.w3.org/1999/xlink" version="1.1" x="0px" y="0px" viewBox="0 0 90 112.5" enable-background="new 0 0 90 90" xml:space="preserve"><path d="M45,9.879c0.345,0,2.004,3.068,1.939,4.232l-0.259,0.582c0,0,1.229,1.163,1.292,3.749c0.065,2.585,0,6.98,0,6.98  s23.529,0,35.875,2.779c0,0,11.182,3.297,0,8.727c-11.184,5.429-29.541,7.626-33.741,7.626l-1.809,2.392  c0,0-1.486,21.264-1.681,21.846c0,0,9.241,1.099,10.665,4.784c1.421,3.684-7.11,4.253-9.697,4.071l-1.809-1.939l-0.193,3.167H45  h-0.582l-0.193-3.167l-1.81,1.939c-2.585,0.182-11.118-0.388-9.696-4.071c1.422-3.686,10.665-4.784,10.665-4.784  c-0.194-0.582-1.681-21.846-1.681-21.846l-1.81-2.392c-4.201,0-22.557-2.197-33.739-7.626c-11.182-5.43,0-8.727,0-8.727  c12.345-2.779,35.873-2.779,35.873-2.779s-0.065-4.395,0-6.98c0.064-2.586,1.292-3.749,1.292-3.749l-0.258-0.582  C42.996,12.947,44.654,9.879,45,9.879"/></svg>
